<mxfile host="app.diagrams.net" modified="2024-06-07T03:02:32.439Z" agent="Mozilla/5.0 (Windows NT 10.0; Win64; x64) AppleWebKit/537.36 (KHTML, like Gecko) Chrome/122.0.0.0 Safari/537.36 Edg/122.0.0.0" version="24.4.13" etag="eezYiavlvASXzfb-j2a0" type="github">
  <diagram name="Page-1" id="mP8MwnkJysV4SIq4gRPJ">
    <mxGraphModel>
      <root>
        <mxCell id="0" />
        <mxCell id="1" parent="0" />
      </root>
    </mxGraphModel>
  </diagram>
</mxfile>
